<?xml version="1.0" encoding="UTF-8" standalone="no"?><svg xmlns="http://www.w3.org/2000/svg" xmlns:xlink="http://www.w3.org/1999/xlink" contentScriptType="application/ecmascript" contentStyleType="text/css" height="652px" preserveAspectRatio="none" style="width:781px;height:652px;" version="1.1" viewBox="0 0 781 652" width="781px" zoomAndPan="magnify"><defs/><g><!--MD5=[14975192145c25c23102b61ef801c1bb]
class Vob--><rect fill="#F8F8F8" height="23.7988" id="Vob" rx="0.5" ry="0.5" style="stroke: #383838; stroke-width: 1.5;" width="160" x="129" y="310"/><text fill="#000000" font-family="arial" font-size="12" font-weight="bold" lengthAdjust="spacingAndGlyphs" textLength="154" x="132" y="326.4521">Generic World Object (Vob)</text><polygon fill="none" points="289,321.9791,309.007,314.999,308.993,328.999" style="stroke: #383838; stroke-width: 1.0;"/><line style="stroke: #383838; stroke-width: 1.0;" x1="309" x2="310" y1="321.999" y2="322"/><line style="stroke: #383838; stroke-width: 1.0;" x1="129" x2="108.902" y1="321.9798" y2="322"/><!--MD5=[f47dd667d2dcf9bb3a6f6bfed88a66c3]
class Mob--><rect fill="#F8F8F8" height="23.7988" id="Mob" rx="0.5" ry="0.5" style="stroke: #383838; stroke-width: 1.5;" width="106" x="369" y="15"/><text fill="#000000" font-family="arial" font-size="12" font-weight="bold" lengthAdjust="spacingAndGlyphs" textLength="100" x="372" y="31.4521">Interactive Object</text><!--MD5=[1c0775d47cd143f9c12ba669ee16d3e8]
class Spot--><rect fill="#F8F8F8" height="23.7988" id="Spot" rx="0.5" ry="0.5" style="stroke: #383838; stroke-width: 1.5;" width="96" x="374" y="74"/><text fill="#000000" font-family="arial" font-size="12" font-weight="bold" lengthAdjust="spacingAndGlyphs" textLength="90" x="377" y="90.4521">Freepoint (Spot)</text><!--MD5=[aa7f586532e18719e6cefa70fc650583]
class Object--><rect fill="#F8F8F8" height="23.7988" id="Object" rx="0.5" ry="0.5" style="stroke: #383838; stroke-width: 1.5;" width="43" x="6" y="310"/><text fill="#000000" font-family="arial" font-size="12" font-weight="bold" lengthAdjust="spacingAndGlyphs" textLength="37" x="9" y="326.4521">Object</text><!--MD5=[825acb9d7b4dffc6de3828db721537fb]
class Npc--><rect fill="#F8F8F8" height="23.7988" id="Npc" rx="0.5" ry="0.5" style="stroke: #383838; stroke-width: 1.5;" width="28" x="408" y="133"/><text fill="#000000" font-family="arial" font-size="12" font-weight="bold" lengthAdjust="spacingAndGlyphs" textLength="22" x="411" y="149.4521">Npc</text><path d="M552.5,8.5 L552.5,23 L475.022,27 L552.5,31 L552.5,45.0977 A0.5,0.5 0 0 0 553,45.5977 L751,45.5977 A0.5,0.5 0 0 0 751.5,45.0977 L751.5,18 L741.5,8 L553,8 A0.5,0.5 0 0 0 552.5,8.5 " fill="#ECECEC" style="stroke: #383838; stroke-width: 1.0;"/><path d="M741.5,8 L741.5,17.75 A0.25,0.25 0 0 0 741.75,18 L751.5,18 L741.5,8 " fill="#ECECEC" style="stroke: #383838; stroke-width: 1.0;"/><text fill="#000000" font-family="arial" font-size="12" lengthAdjust="spacingAndGlyphs" textLength="178" x="558.5" y="24.4521">Bed, Switch, ItemSlot, Container,</text><text fill="#000000" font-family="arial" font-size="12" lengthAdjust="spacingAndGlyphs" textLength="140" x="558.5" y="38.251">Door, Fire, Wheel, Ladder</text><!--MD5=[44a1b4afaef76c16e6c9ec4990ad0c8d]
class Item--><rect fill="#F8F8F8" height="23.7988" id="Item" rx="0.5" ry="0.5" style="stroke: #383838; stroke-width: 1.5;" width="31" x="406.5" y="192"/><text fill="#000000" font-family="arial" font-size="12" font-weight="bold" lengthAdjust="spacingAndGlyphs" textLength="25" x="409.5" y="208.4521">Item</text><!--MD5=[f8158362d3f9eaf6b261520465ba7069]
class Trigger--><rect fill="#F8F8F8" height="23.7988" id="Trigger" rx="0.5" ry="0.5" style="stroke: #383838; stroke-width: 1.5;" width="47" x="398.5" y="251"/><text fill="#000000" font-family="arial" font-size="12" font-weight="bold" lengthAdjust="spacingAndGlyphs" textLength="41" x="401.5" y="267.4521">Trigger</text><path d="M553,251.5 L553,259 L445.695,263 L553,267 L553,274.2988 A0.5,0.5 0 0 0 553.5,274.7988 L750.5,274.7988 A0.5,0.5 0 0 0 751,274.2988 L751,261 L741,251 L553.5,251 A0.5,0.5 0 0 0 553,251.5 " fill="#ECECEC" style="stroke: #383838; stroke-width: 1.0;"/><path d="M741,251 L741,260.75 A0.25,0.25 0 0 0 741.25,261 L751,261 L741,251 " fill="#ECECEC" style="stroke: #383838; stroke-width: 1.0;"/><text fill="#000000" font-family="arial" font-size="12" lengthAdjust="spacingAndGlyphs" textLength="177" x="559" y="267.4521">TouchTrigger, Mover, Teleport, ...</text><!--MD5=[0826150ee229d322d008f6eeb7a0b643]
class Waypoint--><rect fill="#F8F8F8" height="23.7988" id="Waypoint" rx="0.5" ry="0.5" style="stroke: #383838; stroke-width: 1.5;" width="59" x="392.5" y="310"/><text fill="#000000" font-family="arial" font-size="12" font-weight="bold" lengthAdjust="spacingAndGlyphs" textLength="53" x="395.5" y="326.4521">Waypoint</text><!--MD5=[761e266815a6cf29385301847abf9529]
class SoundVob--><rect fill="#F8F8F8" height="23.7988" id="SoundVob" rx="0.5" ry="0.5" style="stroke: #383838; stroke-width: 1.5;" width="64" x="390" y="369"/><text fill="#000000" font-family="arial" font-size="12" font-weight="bold" lengthAdjust="spacingAndGlyphs" textLength="58" x="393" y="385.4521">SoundVob</text><!--MD5=[452be1aaf8b94e2bc4204d466ef769a4]
class Camera--><rect fill="#F8F8F8" height="23.7988" id="Camera" rx="0.5" ry="0.5" style="stroke: #383838; stroke-width: 1.5;" width="51" x="396.5" y="428"/><text fill="#000000" font-family="arial" font-size="12" font-weight="bold" lengthAdjust="spacingAndGlyphs" textLength="45" x="399.5" y="444.4521">Camera</text><!--MD5=[7c1a0278dec21c72584b17e1785fd623]
class Light--><rect fill="#F8F8F8" height="23.7988" id="Light" rx="0.5" ry="0.5" style="stroke: #383838; stroke-width: 1.5;" width="34" x="405" y="487"/><text fill="#000000" font-family="arial" font-size="12" font-weight="bold" lengthAdjust="spacingAndGlyphs" textLength="28" x="408" y="503.4521">Light</text><!--MD5=[ad801415d4a054e52db0882645a380ef]
class Zone--><rect fill="#F8F8F8" height="23.7988" id="Zone" rx="0.5" ry="0.5" style="stroke: #383838; stroke-width: 1.5;" width="34" x="405" y="546"/><text fill="#000000" font-family="arial" font-size="12" font-weight="bold" lengthAdjust="spacingAndGlyphs" textLength="28" x="408" y="562.4521">Zone</text><path d="M582,544.5 L582,552.607 L439.033,557.8594 L582,560.607 L582,567.2988 A0.5,0.5 0 0 0 582.5,567.7988 L721.5,567.7988 A0.5,0.5 0 0 0 722,567.2988 L722,554 L712,544 L582.5,544 A0.5,0.5 0 0 0 582,544.5 " fill="#ECECEC" style="stroke: #383838; stroke-width: 1.0;"/><path d="M712,544 L712,553.75 A0.25,0.25 0 0 0 712.25,554 L722,554 L712,544 " fill="#ECECEC" style="stroke: #383838; stroke-width: 1.0;"/><text fill="#000000" font-family="arial" font-size="12" lengthAdjust="spacingAndGlyphs" textLength="119" x="588" y="560.4521">Reverb, Fog, Music, ...</text><!--MD5=[354ba6fe2710e9f7c691253c66156a32]
class Effect--><rect fill="#F8F8F8" height="23.7988" id="Effect" rx="0.5" ry="0.5" style="stroke: #383838; stroke-width: 1.5;" width="39" x="402.5" y="608"/><text fill="#000000" font-family="arial" font-size="12" font-weight="bold" lengthAdjust="spacingAndGlyphs" textLength="33" x="405.5" y="624.4521">Effect</text><path d="M535,603.5 L535,616.9812 L441.658,620.1637 L535,624.9812 L535,640.0977 A0.5,0.5 0 0 0 535.5,640.5977 L768.5,640.5977 A0.5,0.5 0 0 0 769,640.0977 L769,613 L759,603 L535.5,603 A0.5,0.5 0 0 0 535,603.5 " fill="#ECECEC" style="stroke: #383838; stroke-width: 1.0;"/><path d="M759,603 L759,612.75 A0.25,0.25 0 0 0 759.25,613 L769,613 L759,603 " fill="#ECECEC" style="stroke: #383838; stroke-width: 1.0;"/><text fill="#000000" font-family="arial" font-size="12" lengthAdjust="spacingAndGlyphs" textLength="213" x="541" y="619.4521">Earthquake, ScreenFX, ParticleSystem,</text><text fill="#000000" font-family="arial" font-size="12" lengthAdjust="spacingAndGlyphs" textLength="97" x="541" y="633.251">TouchDamage, ...</text><!--MD5=[c9625f643404ab63fda1e29b7e6659bc]
reverse link Object to Vob--><path d="M69.1597,322 C81.1745,322 94.8845,322 108.902,322 " fill="none" id="Object&lt;-Vob" style="stroke: #383838; stroke-width: 1.0;"/><polygon fill="none" points="69.091,329,49.0909,322,69.0909,315,69.091,329" style="stroke: #383838; stroke-width: 1.0;"/><!--MD5=[f43adc0888eb98e52e7e8e81ac9a9b65]
reverse link Vob to Npc--><path d="M310,322 C310,322 369,174 369,174 C369,174 392.474,160.909 407.878,152.318 " fill="none" id="Vob&lt;-Npc" style="stroke: #383838; stroke-width: 1.0;"/><!--MD5=[0b56f4189b0c8215093a53ff4f94d35c]
reverse link Vob to Mob--><path d="M310,322 C310,322 369,56 369,56 C369,56 384.999,47.077 399.249,39.131 " fill="none" id="Vob&lt;-Mob" style="stroke: #383838; stroke-width: 1.0;"/><!--MD5=[a21aa4cebf069521e6b4188df89e4410]
reverse link Vob to Item--><path d="M310,322 C310,322 369,233 369,233 C369,233 390.865,220.806 406.238,212.233 " fill="none" id="Vob&lt;-Item" style="stroke: #383838; stroke-width: 1.0;"/><!--MD5=[d87fd82f89b0531930eb06a0e28e3583]
reverse link Vob to Trigger--><path d="M310,322 C310,322 365.795,292.343 398.27,275.082 " fill="none" id="Vob&lt;-Trigger" style="stroke: #383838; stroke-width: 1.0;"/><!--MD5=[d33d28dfdc409547d11d4abef71b9198]
reverse link Vob to Waypoint--><path d="M310,322 C310,322 359.526,322 392.415,322 " fill="none" id="Vob&lt;-Waypoint" style="stroke: #383838; stroke-width: 1.0;"/><!--MD5=[636a07a391c76963f674f0e6ec6f3f16]
reverse link Vob to Spot--><path d="M310,322 C310,322 369,115 369,115 C369,115 384.999,106.077 399.249,98.131 " fill="none" id="Vob&lt;-Spot" style="stroke: #383838; stroke-width: 1.0;"/><!--MD5=[f6fdac124581a8dfc47f314e323bb765]
reverse link Vob to SoundVob--><path d="M310,322 C310,322 365.795,351.657 398.27,368.918 " fill="none" id="Vob&lt;-SoundVob" style="stroke: #383838; stroke-width: 1.0;"/><!--MD5=[e7563541f47edd425229389db49ca650]
reverse link Vob to Camera--><path d="M310,322 C310,322 369,411 369,411 C369,411 384.999,419.923 399.249,427.869 " fill="none" id="Vob&lt;-Camera" style="stroke: #383838; stroke-width: 1.0;"/><!--MD5=[684a643b5df88a9dea144f8f9e1065d0]
reverse link Vob to Light--><path d="M310,322 C310,322 369,470 369,470 C369,470 389.567,481.47 404.832,489.983 " fill="none" id="Vob&lt;-Light" style="stroke: #383838; stroke-width: 1.0;"/><!--MD5=[04216e5c555eb6bfdaee3c2ad449d93e]
reverse link Vob to Zone--><path d="M310,322 C310,322 369,529 369,529 C369,529 389.567,540.47 404.832,548.9832 " fill="none" id="Vob&lt;-Zone" style="stroke: #383838; stroke-width: 1.0;"/><!--MD5=[75c34057e757fa9916754efde45fd753]
reverse link Vob to Effect--><path d="M310,322 C310,322 369,588 369,588 C369,588 387.332,599.2812 402.227,608.4473 " fill="none" id="Vob&lt;-Effect" style="stroke: #383838; stroke-width: 1.0;"/><!--MD5=[d1c36d4d163f4ece85fdb24fac60a31f]
@startuml
!include style.iuml

skinparam minClassWidth<<Vob>> 200
skinparam groupInheritance 2
skinparam linetype polyline

left to right direction

class "Generic World Object (Vob)" as Vob
class "Interactive Object" as Mob
class "Freepoint (Spot)" as Spot

class Vob extends Object
class Npc extends Vob
class Mob extends Vob
note right of Mob: Bed, Switch, ItemSlot, Container,\nDoor, Fire, Wheel, Ladder

class Item extends Vob

class Trigger extends Vob
note right of Trigger: TouchTrigger, Mover, Teleport, ...

class Waypoint extends Vob
class Spot extends Vob
class SoundVob extends Vob
class Camera extends Vob
class Light extends Vob

class Zone extends Vob
note right of Zone: Reverb, Fog, Music, ...

class Effect extends Vob
note right of Effect: Earthquake, ScreenFX, ParticleSystem,\nTouchDamage, ...

@enduml

@startuml
skinparam monochrome true
skinparam shadowing false
skinparam classAttributeIconSize 0
skinparam DefaultFontName arial
skinparam DefaultFontSize 12
skinparam ClassFontStyle bold
skinparam componentStyle uml2
skinparam linetype ortho
skinparam roundcorner 1
hide empty fields
hide circle
hide empty description
hide empty members

skinparam minClassWidth<<Vob>> 200
skinparam groupInheritance 2
skinparam linetype polyline

left to right direction

class "Generic World Object (Vob)" as Vob
class "Interactive Object" as Mob
class "Freepoint (Spot)" as Spot

class Vob extends Object
class Npc extends Vob
class Mob extends Vob
note right of Mob: Bed, Switch, ItemSlot, Container,\nDoor, Fire, Wheel, Ladder

class Item extends Vob

class Trigger extends Vob
note right of Trigger: TouchTrigger, Mover, Teleport, ...

class Waypoint extends Vob
class Spot extends Vob
class SoundVob extends Vob
class Camera extends Vob
class Light extends Vob

class Zone extends Vob
note right of Zone: Reverb, Fog, Music, ...

class Effect extends Vob
note right of Effect: Earthquake, ScreenFX, ParticleSystem,\nTouchDamage, ...

@enduml

PlantUML version 1.2020.10(Sun May 17 11:35:57 CEST 2020)
(GPL source distribution)
Java Runtime: Java(TM) SE Runtime Environment
JVM: Java HotSpot(TM) Client VM
Java Version: 1.8.0_241-b07
Operating System: Windows 10
Default Encoding: Cp1252
Language: de
Country: DE
--></g></svg>