<?xml version="1.0" encoding="UTF-8" standalone="no"?><svg xmlns="http://www.w3.org/2000/svg" xmlns:xlink="http://www.w3.org/1999/xlink" contentScriptType="application/ecmascript" contentStyleType="text/css" height="239px" preserveAspectRatio="none" style="width:248px;height:239px;" version="1.1" viewBox="0 0 248 239" width="248px" zoomAndPan="magnify"><defs/><g><ellipse cx="122.5" cy="18" fill="#000000" rx="10" ry="10" style="stroke: none; stroke-width: 1.0;"/><rect fill="#F8F8F8" height="40" rx="12.5" ry="12.5" style="stroke: #383838; stroke-width: 1.5;" width="50" x="97.5" y="88"/><text fill="#000000" font-family="arial" font-size="12" lengthAdjust="spacingAndGlyphs" textLength="40" x="102.5" y="112.5527">Closed</text><rect fill="#F8F8F8" height="40" rx="12.5" ry="12.5" style="stroke: #383838; stroke-width: 1.5;" width="57" x="6" y="188"/><text fill="#000000" font-family="arial" font-size="12" lengthAdjust="spacingAndGlyphs" textLength="47" x="11" y="212.5527">Opening</text><rect fill="#F8F8F8" height="40" rx="12.5" ry="12.5" style="stroke: #383838; stroke-width: 1.5;" width="50" x="98.5" y="188"/><text fill="#000000" font-family="arial" font-size="12" lengthAdjust="spacingAndGlyphs" textLength="30" x="108.5" y="212.5527">Open</text><rect fill="#F8F8F8" height="40" rx="12.5" ry="12.5" style="stroke: #383838; stroke-width: 1.5;" width="53" x="184" y="188"/><text fill="#000000" font-family="arial" font-size="12" lengthAdjust="spacingAndGlyphs" textLength="43" x="189" y="212.5527">Closing</text><rect fill="#F8F8F8" height="40" rx="12.5" ry="12.5" style="stroke: #383838; stroke-width: 1.5;" width="50" x="12.5" y="88"/><text fill="#000000" font-family="arial" font-size="12" lengthAdjust="spacingAndGlyphs" textLength="38" x="18.5" y="112.5527">Wiggle</text><!--MD5=[51ad14c1b253b1d0cbc31b222ac7a4ed]
link *start to Closed--><path d="M122.5,28.086 C122.5,40.821 122.5,64.447 122.5,82.54 " fill="none" id="*start-&gt;Closed" style="stroke: #383838; stroke-width: 1.0;"/><polygon fill="#383838" points="122.5,87.96,126.5,78.96,122.5,82.96,118.5,78.96,122.5,87.96" style="stroke: #383838; stroke-width: 1.0;"/><!--MD5=[6ae82c847737001e67caf0dc7515edc6]
link Closed to Opening--><path d="M105.114,128.3616 C90.7712,144.3344 70.3848,167.0374 55.2008,183.9468 " fill="none" id="Closed-&gt;Opening" style="stroke: #383838; stroke-width: 1.0;"/><polygon fill="#383838" points="51.8499,187.6786,60.8392,183.6545,55.1905,183.9583,54.8867,178.3096,51.8499,187.6786" style="stroke: #383838; stroke-width: 1.0;"/><!--MD5=[14a7f5f276644c82359faf61dc99b234]
link Opening to Open--><path d="M63.4333,208 C63.9059,208 64.1667,208 64.1667,208 C64.1667,208 83.3765,208 93.2956,208 " fill="none" id="Opening-&gt;Open" style="stroke: #383838; stroke-width: 1.0;"/><polygon fill="#383838" points="98.4688,208,89.4688,204,93.4688,208,89.4688,212,98.4688,208" style="stroke: #383838; stroke-width: 1.0;"/><!--MD5=[89fff460748258d711801ba787814421]
link Open to Closing--><path d="M148.944,208 C151.112,208 152.5,208 152.5,208 C152.5,208 169.848,208 178.762,208 " fill="none" id="Open-&gt;Closing" style="stroke: #383838; stroke-width: 1.0;"/><polygon fill="#383838" points="183.776,208,174.776,204,178.776,208,174.776,212,183.776,208" style="stroke: #383838; stroke-width: 1.0;"/><!--MD5=[8cca1aa74f18bade4b670df928a4999e]
link Closing to Closed--><path d="M193.15,187.6786 C178.817,171.7172 158.432,149.0149 143.239,132.0958 " fill="none" id="Closing-&gt;Closed" style="stroke: #383838; stroke-width: 1.0;"/><polygon fill="#383838" points="139.886,128.3616,142.9232,137.7305,143.2267,132.0818,148.8754,132.3853,139.886,128.3616" style="stroke: #383838; stroke-width: 1.0;"/><!--MD5=[4927092af07400dd036c46844898cd12]
reverse link Wiggle to Closed--><path d="M67.8617,126.979 C76.8734,128 94.1667,128 94.1667,128 C94.1667,128 95.3357,127.175 97.1988,125.86 " fill="none" id="Wiggle&lt;-Closed" style="stroke: #383838; stroke-width: 1.0;"/><polygon fill="#383838" points="62.8012,125.86,70.7245,131.7099,67.6831,126.9402,72.4528,123.8988,62.8012,125.86" style="stroke: #383838; stroke-width: 1.0;"/><!--MD5=[b03de023c31c786254a24e30a0891c08]
link Wiggle to Closed--><path d="M62.8012,90.14 C64.6643,88.825 65.8333,88 65.8333,88 C65.8333,88 83.1266,88 92.1383,89.021 " fill="none" id="Wiggle-&gt;Closed" style="stroke: #383838; stroke-width: 1.0;"/><polygon fill="#383838" points="97.1988,90.14,89.2754,84.2903,92.3169,89.0599,87.5472,92.1014,97.1988,90.14" style="stroke: #383838; stroke-width: 1.0;"/><!--MD5=[0b140a52f8052143d1e99c1bce79af17]
@startuml
!include style.iuml
skinparam linetype polyline

[*] -down-> Closed
Closed -down-> Opening
Opening -> Open

Open -> Closing
Closing -right-> Closed

Closed -left-> Wiggle
Wiggle -> Closed

@enduml

@startuml
skinparam monochrome true
skinparam shadowing false
skinparam classAttributeIconSize 0
skinparam DefaultFontName arial
skinparam DefaultFontSize 12
skinparam ClassFontStyle bold
skinparam componentStyle uml2
skinparam linetype ortho
skinparam roundcorner 1
hide empty fields
hide circle
hide empty description
hide empty members
skinparam linetype polyline

[*] -down-> Closed
Closed -down-> Opening
Opening -> Open

Open -> Closing
Closing -right-> Closed

Closed -left-> Wiggle
Wiggle -> Closed

@enduml

PlantUML version 1.2020.10(Sun May 17 11:35:57 CEST 2020)
(GPL source distribution)
Java Runtime: Java(TM) SE Runtime Environment
JVM: Java HotSpot(TM) Client VM
Java Version: 1.8.0_241-b07
Operating System: Windows 10
Default Encoding: Cp1252
Language: de
Country: DE
--></g></svg>