<?xml version="1.0" encoding="UTF-8" standalone="no"?><svg xmlns="http://www.w3.org/2000/svg" xmlns:xlink="http://www.w3.org/1999/xlink" contentScriptType="application/ecmascript" contentStyleType="text/css" height="436px" preserveAspectRatio="none" style="width:442px;height:436px;" version="1.1" viewBox="0 0 442 436" width="442px" zoomAndPan="magnify"><defs/><g><!--MD5=[f47dd667d2dcf9bb3a6f6bfed88a66c3]
class Mob--><rect fill="#F8F8F8" height="23.7988" id="Mob" rx="0.5" ry="0.5" style="stroke: #383838; stroke-width: 1.5;" width="106" x="26" y="205"/><text fill="#000000" font-family="arial" font-size="12" font-weight="bold" lengthAdjust="spacingAndGlyphs" textLength="100" x="29" y="221.4521">Interactive Object</text><polygon fill="none" points="132,216.9715,152.0095,209.9986,151.9905,223.9986" style="stroke: #383838; stroke-width: 1.0;"/><line style="stroke: #383838; stroke-width: 1.0;" x1="152" x2="153" y1="216.9986" y2="217"/><!--MD5=[6bbb4c61f8881d577defa93da5f4661a]
class Bed--><rect fill="#F8F8F8" height="23.7988" id="Bed" rx="0.5" ry="0.5" style="stroke: #383838; stroke-width: 1.5;" width="28" x="247" y="8"/><text fill="#000000" font-family="arial" font-size="12" font-weight="bold" lengthAdjust="spacingAndGlyphs" textLength="22" x="250" y="24.4521">Bed</text><!--MD5=[7e68ee526bacd5d3b5b4ed7f8a923c39]
class Switch--><rect fill="#F8F8F8" height="23.7988" id="Switch" rx="0.5" ry="0.5" style="stroke: #383838; stroke-width: 1.5;" width="45" x="238.5" y="67"/><text fill="#000000" font-family="arial" font-size="12" font-weight="bold" lengthAdjust="spacingAndGlyphs" textLength="39" x="241.5" y="83.4521">Switch</text><!--MD5=[7d2cbd258a886737a28647b8aa977486]
class ItemSlot--><rect fill="#F8F8F8" height="23.7988" id="ItemSlot" rx="0.5" ry="0.5" style="stroke: #383838; stroke-width: 1.5;" width="53" x="234.5" y="126"/><text fill="#000000" font-family="arial" font-size="12" font-weight="bold" lengthAdjust="spacingAndGlyphs" textLength="47" x="237.5" y="142.4521">ItemSlot</text><!--MD5=[4dd0c00b2a21e36fe71d0089ab94e02b]
class Lockable--><rect fill="#F8F8F8" height="23.7988" id="Lockable" rx="0.5" ry="0.5" style="stroke: #383838; stroke-width: 1.5;" width="58" x="232" y="205"/><text fill="#000000" font-family="arial" font-size="12" font-weight="bold" lengthAdjust="spacingAndGlyphs" textLength="52" x="235" y="221.4521">Lockable</text><polygon fill="none" points="290,216.9578,310.014,209.998,309.9859,223.998" style="stroke: #383838; stroke-width: 1.0;"/><line style="stroke: #383838; stroke-width: 1.0;" x1="310" x2="311" y1="216.998" y2="217"/><line style="stroke: #383838; stroke-width: 1.0;" x1="232" x2="211.821" y1="216.9587" y2="217"/><!--MD5=[e9a58730c562b34349daa605d1ed6662]
class Container--><rect fill="#F8F8F8" height="23.7988" id="Container" rx="0.5" ry="0.5" style="stroke: #383838; stroke-width: 1.5;" width="61" x="370" y="176"/><text fill="#000000" font-family="arial" font-size="12" font-weight="bold" lengthAdjust="spacingAndGlyphs" textLength="55" x="373" y="192.4521">Container</text><!--MD5=[ff61424299de7fbd1b7bbdfe7c644dfd]
class Door--><rect fill="#F8F8F8" height="23.7988" id="Door" rx="0.5" ry="0.5" style="stroke: #383838; stroke-width: 1.5;" width="33" x="384" y="235"/><text fill="#000000" font-family="arial" font-size="12" font-weight="bold" lengthAdjust="spacingAndGlyphs" textLength="27" x="387" y="251.4521">Door</text><!--MD5=[ce63fd991b2bb20a517d8335a9e0ea68]
class Fire--><rect fill="#F8F8F8" height="23.7988" id="Fire" rx="0.5" ry="0.5" style="stroke: #383838; stroke-width: 1.5;" width="27" x="247.5" y="284"/><text fill="#000000" font-family="arial" font-size="12" font-weight="bold" lengthAdjust="spacingAndGlyphs" textLength="21" x="250.5" y="300.4521">Fire</text><!--MD5=[63ed6a0a2dfd613875880437a5e2b06e]
class Wheel--><rect fill="#F8F8F8" height="23.7988" id="Wheel" rx="0.5" ry="0.5" style="stroke: #383838; stroke-width: 1.5;" width="42" x="240" y="343"/><text fill="#000000" font-family="arial" font-size="12" font-weight="bold" lengthAdjust="spacingAndGlyphs" textLength="36" x="243" y="359.4521">Wheel</text><!--MD5=[4986b83e9bd62404d41350bb52758c36]
class Ladder--><rect fill="#F8F8F8" height="23.7988" id="Ladder" rx="0.5" ry="0.5" style="stroke: #383838; stroke-width: 1.5;" width="46" x="238" y="402"/><text fill="#000000" font-family="arial" font-size="12" font-weight="bold" lengthAdjust="spacingAndGlyphs" textLength="40" x="241" y="418.4521">Ladder</text><!--MD5=[e145bcc740983760b5ab25b142c0aedb]
reverse link Mob to Bed--><path d="M153,217 C153,217 212,49 212,49 C212,49 232.672,36.511 246.884,27.924 " fill="none" id="Mob&lt;-Bed" style="stroke: #383838; stroke-width: 1.0;"/><!--MD5=[cb3ed6068d114cad150df6766588d00b]
reverse link Mob to Switch--><path d="M153,217 C153,217 212,108 212,108 C212,108 226.769,99.077 239.922,91.131 " fill="none" id="Mob&lt;-Switch" style="stroke: #383838; stroke-width: 1.0;"/><!--MD5=[f09adc3d1835cad1bd7482cd301fb032]
reverse link Mob to ItemSlot--><path d="M153,217 C153,217 212,167 212,167 C212,167 226.769,158.077 239.922,150.131 " fill="none" id="Mob&lt;-ItemSlot" style="stroke: #383838; stroke-width: 1.0;"/><!--MD5=[f2ca0c1bdd10c42568036d0acb44995c]
reverse link Mob to Lockable--><path d="M153,217 C153,217 183.421,217 211.821,217 " fill="none" id="Mob&lt;-Lockable" style="stroke: #383838; stroke-width: 1.0;"/><!--MD5=[ea46ecb3610922466c50ebb1e28098dd]
reverse link Lockable to Container--><path d="M311,217 C311,217 343.863,206.231 369.538,197.818 " fill="none" id="Lockable&lt;-Container" style="stroke: #383838; stroke-width: 1.0;"/><!--MD5=[ff505b3cd1a6640a0439998ec2d297d2]
reverse link Lockable to Door--><path d="M311,217 C311,217 358.222,233.008 383.678,241.637 " fill="none" id="Lockable&lt;-Door" style="stroke: #383838; stroke-width: 1.0;"/><!--MD5=[3835f583a32bf20c65bda313ddc33b55]
reverse link Mob to Fire--><path d="M153,217 C153,217 212,266 212,266 C212,266 233.167,279.229 247.389,288.118 " fill="none" id="Mob&lt;-Fire" style="stroke: #383838; stroke-width: 1.0;"/><!--MD5=[d1fdf67f7f064579ca56bbed239553cb]
reverse link Mob to Wheel--><path d="M153,217 C153,217 212,325 212,325 C212,325 227.399,334.6245 240.753,342.9707 " fill="none" id="Mob&lt;-Wheel" style="stroke: #383838; stroke-width: 1.0;"/><!--MD5=[2c9e5daa47ccdfafdcd8c924b4d75ea5]
reverse link Mob to Ladder--><path d="M153,217 C153,217 212,384 212,384 C212,384 227.399,393.6245 240.753,401.9707 " fill="none" id="Mob&lt;-Ladder" style="stroke: #383838; stroke-width: 1.0;"/><!--MD5=[ee2a404e47a1b5fd38e84e0d5910f19c]
@startuml
!include style.iuml

skinparam minClassWidth<<Vob>> 200
skinparam groupInheritance 2
skinparam linetype polyline

left to right direction

class "Interactive Object" as Mob
    class Bed extends Mob
    class Switch extends Mob
    class ItemSlot extends Mob
    class Lockable extends Mob
    class Container extends Lockable
    class Door extends Lockable
    class Fire extends Mob
    class Wheel extends Mob
    class Ladder extends Mob

@enduml

@startuml
skinparam monochrome true
skinparam shadowing false
skinparam classAttributeIconSize 0
skinparam DefaultFontName arial
skinparam DefaultFontSize 12
skinparam ClassFontStyle bold
skinparam componentStyle uml2
skinparam linetype ortho
skinparam roundcorner 1
hide empty fields
hide circle
hide empty description
hide empty members

skinparam minClassWidth<<Vob>> 200
skinparam groupInheritance 2
skinparam linetype polyline

left to right direction

class "Interactive Object" as Mob
    class Bed extends Mob
    class Switch extends Mob
    class ItemSlot extends Mob
    class Lockable extends Mob
    class Container extends Lockable
    class Door extends Lockable
    class Fire extends Mob
    class Wheel extends Mob
    class Ladder extends Mob

@enduml

PlantUML version 1.2020.10(Sun May 17 11:35:57 CEST 2020)
(GPL source distribution)
Java Runtime: Java(TM) SE Runtime Environment
JVM: Java HotSpot(TM) Client VM
Java Version: 1.8.0_241-b07
Operating System: Windows 10
Default Encoding: Cp1252
Language: de
Country: DE
--></g></svg>