<?xml version="1.0" encoding="UTF-8" standalone="no"?><svg xmlns="http://www.w3.org/2000/svg" xmlns:xlink="http://www.w3.org/1999/xlink" contentScriptType="application/ecmascript" contentStyleType="text/css" height="408px" preserveAspectRatio="none" style="width:708px;height:408px;" version="1.1" viewBox="0 0 708 408" width="708px" zoomAndPan="magnify"><defs/><g><ellipse cx="283.5" cy="20" fill="#000000" rx="10" ry="10" style="stroke: none; stroke-width: 1.0;"/><polygon fill="#F8F8F8" points="137.5,50,429.5,50,441.5,66.8994,429.5,83.7988,137.5,83.7988,125.5,66.8994,137.5,50" style="stroke: #383838; stroke-width: 1.5;"/><text fill="#000000" font-family="arial" font-size="12" lengthAdjust="spacingAndGlyphs" textLength="272" x="147.5" y="71.4521">Is there a close Npc also wanting to do smalltalk?</text><text fill="#000000" font-family="arial" font-size="12" lengthAdjust="spacingAndGlyphs" textLength="19" x="96.5" y="54.5527">yes</text><text fill="#000000" font-family="arial" font-size="12" lengthAdjust="spacingAndGlyphs" textLength="14" x="451.5" y="54.5527">no</text><rect fill="#F8F8F8" height="53.7988" rx="12.5" ry="12.5" style="stroke: #383838; stroke-width: 1.5;" width="112" x="36" y="93.7988"/><text fill="#000000" font-family="arial" font-size="12" lengthAdjust="spacingAndGlyphs" textLength="72" x="56" y="125.251">If so, turn to it</text><rect fill="#F8F8F8" height="53.7988" rx="12.5" ry="12.5" style="stroke: #383838; stroke-width: 1.5;" width="139" x="22.5" y="182.5977"/><text fill="#000000" font-family="arial" font-size="12" lengthAdjust="spacingAndGlyphs" textLength="99" x="42.5" y="214.0498">Say a random line</text><rect fill="#F8F8F8" height="53.7988" rx="12.5" ry="12.5" style="stroke: #383838; stroke-width: 1.5;" width="164" x="10" y="271.3965"/><text fill="#000000" font-family="arial" font-size="12" lengthAdjust="spacingAndGlyphs" textLength="124" x="30" y="302.8486">Wait for a few seconds</text><polygon fill="#F8F8F8" points="353.5,93.7988,596.5,93.7988,608.5,117.5977,596.5,141.3965,353.5,141.3965,341.5,117.5977,353.5,93.7988" style="stroke: #383838; stroke-width: 1.5;"/><text fill="#000000" font-family="arial" font-size="12" lengthAdjust="spacingAndGlyphs" textLength="223" x="363.5" y="115.251">I'm trying to find someone to do smalltalk</text><text fill="#000000" font-family="arial" font-size="12" lengthAdjust="spacingAndGlyphs" textLength="185" x="363.5" y="129.0498">with for more than 5 seconds now</text><text fill="#000000" font-family="arial" font-size="12" lengthAdjust="spacingAndGlyphs" textLength="19" x="312.5" y="105.251">yes</text><text fill="#000000" font-family="arial" font-size="12" lengthAdjust="spacingAndGlyphs" textLength="14" x="618.5" y="105.251">no</text><rect fill="#F8F8F8" height="53.7988" rx="12.5" ry="12.5" style="stroke: #383838; stroke-width: 1.5;" width="255" x="204" y="151.3965"/><text fill="#000000" font-family="arial" font-size="12" lengthAdjust="spacingAndGlyphs" textLength="215" x="224" y="182.8486">cancel smalltalk and just stand around.</text><ellipse cx="331.5" cy="251.1953" fill="#FFFFFF" rx="11" ry="11" style="stroke: #000000; stroke-width: 1.0;"/><ellipse cx="331.5" cy="251.1953" fill="#000000" rx="6" ry="6" style="stroke: #7F7F7F; stroke-width: 1.0;"/><rect fill="#F8F8F8" height="53.7988" rx="12.5" ry="12.5" style="stroke: #383838; stroke-width: 1.5;" width="158" x="539.5" y="151.3965"/><text fill="#000000" font-family="arial" font-size="12" lengthAdjust="spacingAndGlyphs" textLength="118" x="559.5" y="182.8486">Try again in 1 Second</text><polygon fill="#F8F8F8" points="283.5,331.1953,295.5,343.1953,283.5,355.1953,271.5,343.1953,283.5,331.1953" style="stroke: #383838; stroke-width: 1.5;"/><ellipse cx="283.5" cy="386.1953" fill="#FFFFFF" rx="11" ry="11" style="stroke: #000000; stroke-width: 1.0;"/><ellipse cx="283.5" cy="386.1953" fill="#000000" rx="6" ry="6" style="stroke: #7F7F7F; stroke-width: 1.0;"/><line style="stroke: #383838; stroke-width: 1.5;" x1="92" x2="92" y1="147.5977" y2="182.5977"/><polygon fill="#383838" points="88,172.5977,92,182.5977,96,172.5977,92,176.5977" style="stroke: #383838; stroke-width: 1.0;"/><line style="stroke: #383838; stroke-width: 1.5;" x1="92" x2="92" y1="236.3965" y2="271.3965"/><polygon fill="#383838" points="88,261.3965,92,271.3965,96,261.3965,92,265.3965" style="stroke: #383838; stroke-width: 1.0;"/><line style="stroke: #383838; stroke-width: 1.5;" x1="331.5" x2="331.5" y1="205.1953" y2="240.1953"/><polygon fill="#383838" points="327.5,230.1953,331.5,240.1953,335.5,230.1953,331.5,234.1953" style="stroke: #383838; stroke-width: 1.0;"/><line style="stroke: #383838; stroke-width: 1.5;" x1="341.5" x2="331.5" y1="117.5977" y2="117.5977"/><line style="stroke: #383838; stroke-width: 1.5;" x1="331.5" x2="331.5" y1="117.5977" y2="151.3965"/><polygon fill="#383838" points="327.5,141.3965,331.5,151.3965,335.5,141.3965,331.5,145.3965" style="stroke: #383838; stroke-width: 1.0;"/><line style="stroke: #383838; stroke-width: 1.5;" x1="608.5" x2="618.5" y1="117.5977" y2="117.5977"/><line style="stroke: #383838; stroke-width: 1.5;" x1="618.5" x2="618.5" y1="117.5977" y2="151.3965"/><polygon fill="#383838" points="614.5,141.3965,618.5,151.3965,622.5,141.3965,618.5,145.3965" style="stroke: #383838; stroke-width: 1.0;"/><line style="stroke: #383838; stroke-width: 1.5;" x1="618.5" x2="618.5" y1="205.1953" y2="343.1953"/><line style="stroke: #383838; stroke-width: 1.5;" x1="618.5" x2="295.5" y1="343.1953" y2="343.1953"/><polygon fill="#383838" points="305.5,339.1953,295.5,343.1953,305.5,347.1953,301.5,343.1953" style="stroke: #383838; stroke-width: 1.0;"/><line style="stroke: #383838; stroke-width: 1.5;" x1="125.5" x2="92" y1="66.8994" y2="66.8994"/><line style="stroke: #383838; stroke-width: 1.5;" x1="92" x2="92" y1="66.8994" y2="93.7988"/><polygon fill="#383838" points="88,83.7988,92,93.7988,96,83.7988,92,87.7988" style="stroke: #383838; stroke-width: 1.0;"/><line style="stroke: #383838; stroke-width: 1.5;" x1="441.5" x2="475" y1="66.8994" y2="66.8994"/><line style="stroke: #383838; stroke-width: 1.5;" x1="475" x2="475" y1="66.8994" y2="93.7988"/><polygon fill="#383838" points="471,83.7988,475,93.7988,479,83.7988,475,87.7988" style="stroke: #383838; stroke-width: 1.0;"/><line style="stroke: #383838; stroke-width: 1.5;" x1="92" x2="92" y1="325.1953" y2="343.1953"/><line style="stroke: #383838; stroke-width: 1.5;" x1="92" x2="271.5" y1="343.1953" y2="343.1953"/><polygon fill="#383838" points="261.5,339.1953,271.5,343.1953,261.5,347.1953,265.5,343.1953" style="stroke: #383838; stroke-width: 1.0;"/><line style="stroke: #383838; stroke-width: 1.5;" x1="283.5" x2="283.5" y1="30" y2="50"/><polygon fill="#383838" points="279.5,40,283.5,50,287.5,40,283.5,44" style="stroke: #383838; stroke-width: 1.0;"/><line style="stroke: #383838; stroke-width: 1.5;" x1="283.5" x2="283.5" y1="355.1953" y2="375.1953"/><polygon fill="#383838" points="279.5,365.1953,283.5,375.1953,287.5,365.1953,283.5,369.1953" style="stroke: #383838; stroke-width: 1.0;"/><!--MD5=[e09923e54cc578b3d4557520d7f25225]
@startuml

!include ../../style.iuml
skinparam padding 10

Start

if (Is there a close Npc also wanting to do smalltalk?) then (yes)
    :If so, turn to it;
    :Say a random line;
    :Wait for a few seconds;
else (no)
    if (I'm trying to find someone to do smalltalk\nwith for more than 5 seconds now) then (yes)
        :cancel smalltalk and just stand around.;
        Stop
    else (no)
        :Try again in 1 Second;
    endif
endif

Stop

@enduml

@startuml

skinparam monochrome true
skinparam shadowing false
skinparam classAttributeIconSize 0
skinparam DefaultFontName arial
skinparam DefaultFontSize 12
skinparam ClassFontStyle bold
skinparam componentStyle uml2
skinparam linetype ortho
skinparam roundcorner 1
hide empty fields
hide circle
hide empty description
hide empty members
skinparam padding 10

Start

if (Is there a close Npc also wanting to do smalltalk?) then (yes)
    :If so, turn to it;
    :Say a random line;
    :Wait for a few seconds;
else (no)
    if (I'm trying to find someone to do smalltalk\nwith for more than 5 seconds now) then (yes)
        :cancel smalltalk and just stand around.;
        Stop
    else (no)
        :Try again in 1 Second;
    endif
endif

Stop

@enduml

PlantUML version 1.2020.10(Sun May 17 11:35:57 CEST 2020)
(GPL source distribution)
Java Runtime: Java(TM) SE Runtime Environment
JVM: Java HotSpot(TM) Client VM
Java Version: 1.8.0_241-b07
Operating System: Windows 10
Default Encoding: Cp1252
Language: de
Country: DE
--></g></svg>